<?xml version="1.0" encoding="UTF-8"?>
<svg width="20px" height="19px" viewBox="0 0 20 19" version="1.1" xmlns="http://www.w3.org/2000/svg" xmlns:xlink="http://www.w3.org/1999/xlink">
    <title>ic_like</title>
    <defs>
        <path d="M12,21.35 L10.55,20.03 C5.4,15.36 2,12.28 2,8.5 C2,5.42 4.42,3 7.5,3 C9.24,3 10.91,3.81 12,5.09 C13.09,3.81 14.76,3 16.5,3 C19.58,3 22,5.42 22,8.5 C22,12.28 18.6,15.36 13.45,20.04 L12,21.35 L12,21.35 Z" id="path-1"></path>
    </defs>
    <g id="Symbols" stroke="none" stroke-width="1" fill="none" fill-rule="evenodd">
        <g id="Comment-Content-3" transform="translate(-172.000000, -88.000000)">
            <g id="Group" transform="translate(95.000000, 0.000000)">
                <g id="Toolbar" transform="translate(0.000000, 85.000000)">
                    <g id="ic_reply" transform="translate(75.000000, 0.000000)">
                        <mask id="mask-2" fill="white">
                            <use xlink:href="#path-1"></use>
                        </mask>
                        <g id="Mask"></g>
                        <g id="Group" mask="url(#mask-2)">
                            <g transform="translate(-13.000000, -13.000000)">
                                <path d="M0,0 L50,0 L50,50 L0,50 L0,0 Z" id="Colors/Your_color_5" fill="#9B9B9B"></path>
                            </g>
                        </g>
                    </g>
                </g>
            </g>
        </g>
    </g>
</svg>