<?xml version="1.0" encoding="UTF-8"?>
<svg width="15px" height="16px" viewBox="0 0 15 16" version="1.1" xmlns="http://www.w3.org/2000/svg" xmlns:xlink="http://www.w3.org/1999/xlink">
    <title>ic_tag</title>
    <defs>
        <path d="M11.9809195,1.50021941 L12.0828236,1.50465334 C12.4945038,1.55039558 12.791155,1.92120967 12.7454128,2.33288979 L12.7454128,2.33288979 L12.338,5.99921941 L15,6.00006614 C15.3796958,6.00006614 15.693491,6.28222003 15.7431534,6.64829559 L15.75,6.75006614 C15.75,7.16427971 15.4142136,7.50006614 15,7.50006614 L15,7.50006614 L12.171,7.49921941 L11.838,10.4992194 L15,10.5000661 C15.3796958,10.5000661 15.693491,10.78222 15.7431534,11.1482956 L15.75,11.2500661 C15.75,11.6642797 15.4142136,12.0000661 15,12.0000661 L15,12.0000661 L11.671,11.9992194 L11.2454128,15.8328898 C11.2034824,16.2102632 10.8884014,16.4909805 10.5190805,16.4999129 L10.4171764,16.4954789 C10.0054962,16.4497367 9.70884496,16.0789226 9.7545872,15.6672425 L9.7545872,15.6672425 L10.162,11.9992194 L7.171,11.9992194 L6.7454128,15.8328898 C6.70348242,16.2102632 6.38840138,16.4909805 6.01908054,16.4999129 L5.91717636,16.4954789 C5.50549623,16.4497367 5.20884496,16.0789226 5.2545872,15.6672425 L5.2545872,15.6672425 L5.662,11.9992194 L3,12.0000661 C2.62030423,12.0000661 2.30650904,11.7179123 2.25684662,11.3518367 L2.25,11.2500661 C2.25,10.8358526 2.58578644,10.5000661 3,10.5000661 L3,10.5000661 L5.828,10.4992194 L6.162,7.49921941 L3,7.50006614 C2.62030423,7.50006614 2.30650904,7.21791226 2.25684662,6.8518367 L2.25,6.75006614 C2.25,6.33585258 2.58578644,6.00006614 3,6.00006614 L3,6.00006614 L6.328,5.99921941 L6.7545872,2.1672425 C6.79651758,1.78986905 7.11159862,1.5091518 7.48091946,1.50021941 L7.58282364,1.50465334 C7.99450377,1.55039558 8.29115504,1.92120967 8.2454128,2.33288979 L8.2454128,2.33288979 L7.838,5.99921941 L10.828,5.99921941 L11.2545872,2.1672425 C11.2965176,1.78986905 11.6115986,1.5091518 11.9809195,1.50021941 Z M10.328,10.4992194 L10.662,7.49921941 L7.671,7.49921941 L7.338,10.4992194 L10.328,10.4992194 Z" id="path-1"></path>
    </defs>
    <g id="Symbols" stroke="none" stroke-width="1" fill="none" fill-rule="evenodd">
        <g id="Comment-Content-3" transform="translate(-813.000000, -93.000000)">
            <g id="Chips-/-Rounded-/-Outline-/-Left-Accessory-+-Title" transform="translate(804.696629, 85.000000)">
                <g id="ic_expand_more" transform="translate(7.000000, 7.000000)">
                    <mask id="mask-2" fill="white">
                        <use xlink:href="#path-1"></use>
                    </mask>
                    <use id="Combined-Shape" fill="#000000" fill-rule="nonzero" xlink:href="#path-1"></use>
                    <g id="Group" mask="url(#mask-2)" fill="#9B9B9B">
                        <g id="COLOR/-black">
                            <path d="M0,0 L18,0 L18,18 L0,18 L0,0 Z" id="Colors/Your_color_5"></path>
                        </g>
                    </g>
                </g>
            </g>
        </g>
    </g>
</svg>