<?xml version="1.0" encoding="UTF-8"?>
<svg width="22px" height="22px" viewBox="0 0 22 22" version="1.1" xmlns="http://www.w3.org/2000/svg" xmlns:xlink="http://www.w3.org/1999/xlink">
    <title>instagram_logo</title>
    <defs>
        <filter id="filter-1">
            <feColorMatrix in="SourceGraphic" type="matrix" values="0 0 0 0 1.000000 0 0 0 0 1.000000 0 0 0 0 1.000000 0 0 0 1.000000 0"></feColorMatrix>
        </filter>
        <path d="M12.0082031,6.61757813 C9.02695312,6.61757813 6.62226562,9.02226563 6.62226562,12.0035156 C6.62226562,14.9847656 9.02695312,17.3894531 12.0082031,17.3894531 C14.9894531,17.3894531 17.3941406,14.9847656 17.3941406,12.0035156 C17.3941406,9.02226563 14.9894531,6.61757813 12.0082031,6.61757813 Z M12.0082031,15.5050781 C10.0816406,15.5050781 8.50664062,13.9347656 8.50664062,12.0035156 C8.50664062,10.0722656 10.0769531,8.50195313 12.0082031,8.50195313 C13.9394531,8.50195313 15.5097656,10.0722656 15.5097656,12.0035156 C15.5097656,13.9347656 13.9347656,15.5050781 12.0082031,15.5050781 L12.0082031,15.5050781 Z M18.8707031,6.39726563 C18.8707031,7.09570313 18.3082031,7.65351563 17.6144531,7.65351563 C16.9160156,7.65351563 16.3582031,7.09101563 16.3582031,6.39726563 C16.3582031,5.70351563 16.9207031,5.14101563 17.6144531,5.14101563 C18.3082031,5.14101563 18.8707031,5.70351563 18.8707031,6.39726563 Z M22.4378906,7.67226563 C22.3582031,5.98945313 21.9738281,4.49882813 20.7410156,3.27070313 C19.5128906,2.04257813 18.0222656,1.65820313 16.3394531,1.57382813 C14.6050781,1.47539063 9.40664062,1.47539063 7.67226562,1.57382813 C5.99414062,1.65351563 4.50351562,2.03789063 3.27070312,3.26601563 C2.03789062,4.49414063 1.65820312,5.98476563 1.57382812,7.66757813 C1.47539062,9.40195313 1.47539062,14.6003906 1.57382812,16.3347656 C1.65351562,18.0175781 2.03789062,19.5082031 3.27070312,20.7363281 C4.50351562,21.9644531 5.98945312,22.3488281 7.67226562,22.4332031 C9.40664062,22.5316406 14.6050781,22.5316406 16.3394531,22.4332031 C18.0222656,22.3535156 19.5128906,21.9691406 20.7410156,20.7363281 C21.9691406,19.5082031 22.3535156,18.0175781 22.4378906,16.3347656 C22.5363281,14.6003906 22.5363281,9.40664063 22.4378906,7.67226563 Z M20.1972656,18.1957031 C19.8316406,19.1144531 19.1238281,19.8222656 18.2003906,20.1925781 C16.8175781,20.7410156 13.5363281,20.6144531 12.0082031,20.6144531 C10.4800781,20.6144531 7.19414062,20.7363281 5.81601562,20.1925781 C4.89726562,19.8269531 4.18945312,19.1191406 3.81914062,18.1957031 C3.27070312,16.8128906 3.39726562,13.5316406 3.39726562,12.0035156 C3.39726562,10.4753906 3.27539062,7.18945313 3.81914062,5.81132813 C4.18476562,4.89257813 4.89257812,4.18476563 5.81601562,3.81445313 C7.19882812,3.26601563 10.4800781,3.39257813 12.0082031,3.39257813 C13.5363281,3.39257813 16.8222656,3.27070313 18.2003906,3.81445313 C19.1191406,4.18007813 19.8269531,4.88789063 20.1972656,5.81132813 C20.7457031,7.19414063 20.6191406,10.4753906 20.6191406,12.0035156 C20.6191406,13.5316406 20.7457031,16.8175781 20.1972656,18.1957031 Z" id="path-2"></path>
    </defs>
    <g id="Symbols" stroke="none" stroke-width="1" fill="none" fill-rule="evenodd">
        <g id="Social-Media" transform="translate(-40.000000, -7.000000)">
            <g id="instagram_logo" transform="translate(39.000000, 6.000000)" filter="url(#filter-1)">
                <g>
                    <mask id="mask-3" fill="white">
                        <use xlink:href="#path-2"></use>
                    </mask>
                    <use id="Mask" fill="#000000" fill-rule="nonzero" xlink:href="#path-2"></use>
                    <g id="Group" mask="url(#mask-3)" fill="#242A42">
                        <g id="Color">
                            <rect id="Black" x="0" y="0" width="24" height="24"></rect>
                        </g>
                    </g>
                </g>
            </g>
        </g>
    </g>
</svg>