<?xml version="1.0" encoding="UTF-8"?>
<svg width="24px" height="20px" viewBox="0 0 24 20" version="1.1" xmlns="http://www.w3.org/2000/svg" xmlns:xlink="http://www.w3.org/1999/xlink">
    <title>twitter_logo</title>
    <defs>
        <filter id="filter-1">
            <feColorMatrix in="SourceGraphic" type="matrix" values="0 0 0 0 1.000000 0 0 0 0 1.000000 0 0 0 0 1.000000 0 0 0 1.000000 0"></feColorMatrix>
        </filter>
        <path d="M21.5329687,7.10784375 C21.5482031,7.32103125 21.5482031,7.53426562 21.5482031,7.74745312 C21.5482031,14.2499531 16.599,21.7423594 7.55329687,21.7423594 C4.76648437,21.7423594 2.17767187,20.9352187 0,19.5342656 C0.395953125,19.5799219 0.776625,19.5951562 1.1878125,19.5951562 C3.48726562,19.5951562 5.60404687,18.8185312 7.29440625,17.4936562 C5.13196875,17.4479531 3.31978125,16.0317187 2.69540625,14.0824687 C3,14.128125 3.30454688,14.1585937 3.624375,14.1585937 C4.06598437,14.1585937 4.50764062,14.0976562 4.91878125,13.9911094 C2.66498437,13.5342187 0.974578125,11.5545469 0.974578125,9.1636875 L0.974578125,9.10279687 C1.629375,9.46828125 2.39085938,9.69670312 3.19790625,9.727125 C1.87303125,8.84385937 1.00504688,7.33626562 1.00504688,5.63067187 C1.00504688,4.71698437 1.24865625,3.87942187 1.67507813,3.14845313 C4.09640625,6.13321875 7.73601563,8.08242187 11.8171875,8.29565625 C11.7410625,7.93017187 11.6953594,7.5495 11.6953594,7.16878125 C11.6953594,4.45809375 13.8882656,2.25 16.6141406,2.25 C18.030375,2.25 19.3095469,2.84390625 20.2080469,3.80329688 C21.3196875,3.59010937 22.3856719,3.17892188 23.329875,2.61548437 C22.9643438,3.75764062 22.1877188,4.71703125 21.1674375,5.326125 C22.1572969,5.21957812 23.1166875,4.94540625 23.9999062,4.56473437 C23.3299687,5.5393125 22.4923594,6.40729687 21.5329687,7.10784375 Z" id="path-2"></path>
    </defs>
    <g id="Symbols" stroke="none" stroke-width="1" fill="none" fill-rule="evenodd">
        <g id="Social-Media" transform="translate(-78.000000, -8.000000)">
            <g id="twitter_logo" transform="translate(78.000000, 6.000000)" filter="url(#filter-1)">
                <g>
                    <mask id="mask-3" fill="white">
                        <use xlink:href="#path-2"></use>
                    </mask>
                    <use id="Mask" fill="#000000" fill-rule="nonzero" xlink:href="#path-2"></use>
                    <g id="Group" mask="url(#mask-3)" fill="#242A42">
                        <g id="Color">
                            <rect id="Black" x="0" y="0" width="24" height="24"></rect>
                        </g>
                    </g>
                </g>
            </g>
        </g>
    </g>
</svg>